<?xml version="1.0" encoding="utf-8"?>
<!-- Generator: Adobe Illustrator 27.5.0, SVG Export Plug-In . SVG Version: 6.00 Build 0)  -->
<svg version="1.1" xmlns="http://www.w3.org/2000/svg" xmlns:xlink="http://www.w3.org/1999/xlink" x="0px" y="0px"
	 viewBox="0 0 3710 3710" style="enable-background:new 0 0 3710 3710;" xml:space="preserve">
<g id="Background">
	<g>
		<g>
			<rect style="fill:#FFFFFF;" width="3710" height="3710"/>
		</g>
	</g>
</g>
<g id="Illustration">
	<g>
		<linearGradient id="SVGID_1_" gradientUnits="userSpaceOnUse" x1="3595.5315" y1="4039.981" x2="1154.4847" y2="1008.3541">
			<stop  offset="0" style="stop-color:#DAE3FE"/>
			<stop  offset="1" style="stop-color:#E9EFFD"/>
		</linearGradient>
		<path style="fill:url(#SVGID_1_);" d="M2923.984,2844.417c-56.07,59.028-109.123,97.094-151.039,127.169
			c-492.714,353.528-1075.725,250.476-1199.632,225.31c-182.971-37.162-536.65-108.997-792.353-409.698
			c-386.858-454.937-326.618-1171.677-26.545-1644.807c54.888-86.544,344.823-566.881,934.114-643.911
			c356.633-46.618,772.352,47.405,1073.404,299.627C3393.868,1327.543,3348.881,2397.099,2923.984,2844.417z"/>
		<g>
			<g>
				<path style="fill:#91B3FA;" d="M1225.801,2215.588c0,0,8.467-355.981-155.495-451.258
					c-163.961-95.277-475.71-154.844-487.395-666c-6.842-299.253-14.246-430.092-19.209-487.143
					c-1.936-22.255,17.841-40.218,39.793-36.083c155.285,29.253,659.74,149.661,765.503,493.974
					C1494.379,1477.265,1225.801,2215.588,1225.801,2215.588z"/>
				<path style="fill:#7D97F4;" d="M723.587,717.323c170.457,152.023,367.559,421.073,472.615,690.124
					c13.485,44.341,52.931,138.637,70.061,306.177c15.3,139.731,7.694,287.384-10.858,385.123
					c-1.173,6.179-7.133,10.237-13.312,9.064c-10.625-2.015-9.212-13.443-9.116-13.083
					c21.187-166.989,12.393-374.836-36.155-562.374c-62.024-230.275-200.362-453.534-343.448-642.89l-14.725-18.646
					c-110.858-142.368-134.195-143.417-123.832-153.34C717.265,715.134,721.096,715.113,723.587,717.323z"/>
			</g>
			<g>
				<path style="fill:#BDD0FB;" d="M1489.293,2900.012c22.183,10.877-210.01-281.107-282.745-739.69
					c-34.274-216.097-34.722-486.847-157.82-591.185c-102.451-86.837-451.076-32.014-565.146-11.179
					c-14.254,2.603-19.053,20.609-7.957,29.927c54.703,45.941,171.723,154.305,202.213,263.516
					c40.189,143.948,177.043,235.506,299.562,260.285c122.519,24.779,190.674,48.825,250.362,244.76
					C1287.449,2552.381,1426.261,2869.104,1489.293,2900.012z"/>
				<path style="fill:#91B3FA;" d="M644.014,1618.777c145.536,6.096,301.758,72.484,381.035,197.016l7.483,11.883
					c17.282,27.864,115.226,225.941,169.624,390.137c0.677,2.047-0.432,4.256-2.479,4.934c-3.477,1.151-5.218-2.675-4.887-2.337
					c-37.9-92.758-92.334-210.361-135.688-298.305c-46.493-95.965-79.029-160.956-185.077-223.207
					c-118.034-67.042-230.799-73.943-230.461-73.874c-1.721-0.176-2.974-1.714-2.798-3.434
					C640.936,1619.934,642.375,1618.712,644.014,1618.777z"/>
			</g>
			<g>
				<path style="fill:#91B3FA;" d="M1389.755,2938.422c13.164,6.941-74.151-143.347-80.851-275.752
					c-6.7-132.406-36.571-358.393-150.751-493.576c-114.181-135.184-239.22-147.517-396.775-24.623
					c-131.296,102.411-213.195,154.095-261.226,163.703c-11.893,2.379-17.963,15.805-12.175,26.464
					c30.806,56.731,117.903,187.043,264.142,177.868c186.538-11.702,412.608-132.965,481.511-31.806
					c68.903,101.159,60.055,157.761,62.172,205.702C1297.919,2734.343,1302.637,2892.491,1389.755,2938.422z"/>
				<path style="fill:#7D97F4;" d="M814.308,2306.789c57.146-54.785,150.215-108.622,231.554-98.584
					c105.828,17.047,176.325,87.718,214.78,192.918c15.033,44.668,21.217,68.513,30.104,123.267c0.71,4.372-5.74,5.678-6.813,1.409
					c-6.467-25.718-12.873-52.647-22.455-80.498c-55.781-179.69-174.854-203.893-179.486-207.57
					c-9.002,0.888-63.576-39.966-193.069,29.714c-24.181,13.162-47.719,28.186-69.818,44.758l-0.122,0.092
					c-1.599,1.199-3.867,0.875-5.066-0.724C812.807,2310.091,813.003,2308.037,814.308,2306.789z"/>
			</g>
		</g>
		<g>
			<g>
				
					<linearGradient id="SVGID_00000044894752142598082970000017886673238485931423_" gradientUnits="userSpaceOnUse" x1="1094.0034" y1="1928.9701" x2="2793.2488" y2="1928.9701" gradientTransform="matrix(0.9998 -0.0219 0.0219 0.9998 28.2232 -27.654)">
					<stop  offset="0" style="stop-color:#09005D"/>
					<stop  offset="1" style="stop-color:#1A0F91"/>
				</linearGradient>
				<path style="fill:url(#SVGID_00000044894752142598082970000017886673238485931423_);" d="M1286.925,610.118
					c-65.884,5.73-116.397,60.907-116.584,127.039c-1.147,404.452-3.04,1799.574,23.326,2293.236
					c2.79,52.249,45.708,93.308,98.029,93.871c259.06,2.789,1004.346,7.915,1427.404-19.151
					c88.071-5.634,156.629-78.631,156.522-166.882c-0.526-434.739-7.628-1676.603-69.765-2202.417
					c-5.089-43.066-39.879-76.526-83.107-79.979C2476.076,636.13,1669.911,576.81,1286.925,610.118z"/>
				<path style="fill:#91B3FA;" d="M1274.334,843.144c-5.088,345.951-19.573,1496.786,5.714,1921.539
					c3.696,62.083,51.921,111.098,111.468,113.173c245.172,8.544,873.875,25.078,1232.121-14.341
					c64.508-7.098,113.811-63.012,115.529-130.718c8.961-353.042,33.167-1424.912,8.59-1844.915
					c-3.921-67.002-55.11-120.465-119.277-124.789c-265.463-17.888-947.14-59.139-1251.781-33.77
					C1319.512,734.087,1275.215,783.252,1274.334,843.144z"/>
				<path style="fill:#1F5AA9;" d="M1866.699,670.268c0.21,9.558,7.832,17.277,17.387,17.567
					c47.175,1.433,180.07,5.502,239.469,7.642c11.711,0.422,20.661-10.294,18.19-21.75c-0.203-0.361-1.725-15.049-16.726-16.092
					c-40.18-2.794-161.403-10.326-241.51-5.705C1867.06,652.88,1866.166,671.588,1866.699,670.268z"/>
			</g>
		</g>
		<g>
			<g style="opacity:0.8;">
				<path style="fill:#FFFFFF;" d="M2330.905,2132.41c-4.173-5.13-10.717-7.259-17.66-7.114l-632.061,13.259l-15.966-50.717
					c-2.219-7.066-8.864-11.59-16.378-11.393l-86.781,2.28c-9.306,0.244-16.842,6.715-16.842,16.002
					c0,9.287,7.536,15.382,16.842,15.162l74.16-1.752l134.19,428.796c2.259,7.217,9.035,12.181,16.716,12.284l443.641,5.956
					c10.412,0.14,18.864-6.394,18.864-16.239c0-9.842-8.453-16.583-18.864-16.696l-430.696-4.643l-34.567-111.333l473.298,0.718
					c9.691,0.015,18.233-6.328,20.948-15.122l74.7-241.53C2336.396,2144.03,2335.083,2137.543,2330.905,2132.41z"/>
				<path style="fill:#FFFFFF;" d="M1852.024,2575.667c-36.502-0.568-66.033,27.843-66.033,63.328
					c0,35.486,29.531,65.13,66.033,66.089c36.722,0.965,66.764-27.434,66.764-63.312
					C1918.788,2605.893,1888.746,2576.237,1852.024,2575.667z M1852.024,2670.572c-17.061-0.4-30.906-14.235-30.906-30.843
					c0-16.608,13.846-29.865,30.906-29.551c17.109,0.315,31.065,14.153,31.065,30.847
					C1883.089,2657.718,1869.132,2670.973,1852.024,2670.572z"/>
				<path style="fill:#FFFFFF;" d="M2147.76,2580.264c-38.311-0.596-69.302,28.495-69.302,64.846
					c0,36.35,30.991,66.737,69.302,67.743c38.548,1.013,70.086-28.066,70.086-64.829
					C2217.846,2611.261,2186.308,2580.863,2147.76,2580.264z M2147.76,2677.496c-17.906-0.419-32.438-14.602-32.438-31.615
					c0-17.015,14.531-30.589,32.438-30.26c17.958,0.331,32.609,14.515,32.609,31.619
					C2180.369,2664.344,2165.718,2677.916,2147.76,2677.496z"/>
			</g>
		</g>
		<g>
			<g>
				<g>
					
						<linearGradient id="SVGID_00000058575388486737985840000009071106788308308627_" gradientUnits="userSpaceOnUse" x1="-5826.7554" y1="2887.0698" x2="-5697.1309" y2="2887.0698" gradientTransform="matrix(0.9987 0.0507 -0.0507 0.9987 7143.3555 595.7192)">
						<stop  offset="0" style="stop-color:#09005D"/>
						<stop  offset="1" style="stop-color:#1A0F91"/>
					</linearGradient>
					<path style="fill:url(#SVGID_00000058575388486737985840000009071106788308308627_);" d="M1198.132,3138.917
						c0,0-15.534,21.946-22.373,85.248c-0.637,5.899,3.792,11.175,9.717,11.476l112.508,5.706c4.527,0.23,7.983-4.045,6.751-8.407
						c-5.604-19.847-23.125-68.431-66.224-97.872L1198.132,3138.917z"/>
					
						<linearGradient id="SVGID_00000029757696686062066370000017216484191493157791_" gradientUnits="userSpaceOnUse" x1="-5847.5786" y1="2468.9636" x2="-5795.0068" y2="2468.9636" gradientTransform="matrix(0.9937 -0.112 0.112 0.9937 6720.2886 24.4975)">
						<stop  offset="0" style="stop-color:#FEBBBA"/>
						<stop  offset="1" style="stop-color:#FF928E"/>
					</linearGradient>
					<path style="fill:url(#SVGID_00000029757696686062066370000017216484191493157791_);" d="M1182.88,3104.501l12.317,52.376
						c1.063,4.518,5.067,7.781,9.708,7.792c6.202,0.014,15.158-0.492,23.645-2.893c7.715-2.183,12.584-9.824,11.685-17.791
						l-5.779-51.258L1182.88,3104.501z"/>
					
						<linearGradient id="SVGID_00000015319413549143483780000009440397026704499133_" gradientUnits="userSpaceOnUse" x1="-5529.7969" y1="2652.0789" x2="-5326.4146" y2="2652.0789" gradientTransform="matrix(0.9994 0.0349 -0.0349 0.9994 7051.2871 734.0373)">
						<stop  offset="0" style="stop-color:#09005D"/>
						<stop  offset="1" style="stop-color:#1A0F91"/>
					</linearGradient>
					<path style="fill:url(#SVGID_00000015319413549143483780000009440397026704499133_);" d="M1455.069,3142.809
						c0,0-22.717,32.743-23.859,78.735c-0.269,10.833,8.496,19.775,19.326,20.153l174.856,6.098
						c8.187,0.285,11.878-10.12,5.342-15.059c-32.277-24.388-95.797-70.062-142.239-88.761L1455.069,3142.809z"/>
					
						<linearGradient id="SVGID_00000050637416619994624960000001700396682571893416_" gradientUnits="userSpaceOnUse" x1="-5476.7896" y1="2786.3455" x2="-5424.5078" y2="2786.3455" gradientTransform="matrix(0.9907 0.1362 -0.1362 0.9907 7252.5708 1097.9357)">
						<stop  offset="0" style="stop-color:#FEBBBA"/>
						<stop  offset="1" style="stop-color:#FF928E"/>
					</linearGradient>
					<path style="fill:url(#SVGID_00000050637416619994624960000001700396682571893416_);" d="M1450.713,3086.985l4.479,67.219
						c0.501,7.519,6.978,13.418,14.487,12.793c4.565-0.38,10.05-1.556,16.114-4.279c5.763-2.588,9.319-8.531,9.081-14.843
						l-3.042-81.108L1450.713,3086.985z"/>
					
						<linearGradient id="SVGID_00000103971414788219322480000009668600767088560316_" gradientUnits="userSpaceOnUse" x1="2477.2659" y1="1032.3221" x2="1595.8898" y2="2248.2373">
						<stop  offset="0" style="stop-color:#09005D"/>
						<stop  offset="1" style="stop-color:#1A0F91"/>
					</linearGradient>
					<path style="fill:url(#SVGID_00000103971414788219322480000009668600767088560316_);" d="M1102.604,2200.337
						c0,0-42.29,46.693-45.511,97.497c-3.222,50.803,121.928,856.522,121.928,856.522s47.836,2.518,70.388-14.879
						c0,0-30.527-528.62-22.393-652.484c0,0,175.802,531.326,218.597,626.085c0,0,45.857,0.403,59.474-9.849
						c0,0-109.518-702.094-161.327-823.269L1102.604,2200.337z"/>
					
						<linearGradient id="SVGID_00000152981466937198448810000008715263296109176962_" gradientUnits="userSpaceOnUse" x1="1141.5195" y1="2416.4463" x2="1230" y2="2416.4463">
						<stop  offset="0" style="stop-color:#4F52FF"/>
						<stop  offset="1" style="stop-color:#4042E2"/>
					</linearGradient>
					<path style="fill:url(#SVGID_00000152981466937198448810000008715263296109176962_);" d="M1223.151,2471.819
						c-2.75,0-5.345-1.67-6.39-4.389l-27.615-71.763l-43.806-21.602c-3.391-1.674-4.786-5.78-3.111-9.171
						c1.674-3.387,5.78-4.786,9.171-3.112l46.207,22.787c1.542,0.761,2.742,2.074,3.36,3.682l28.575,74.26
						c1.36,3.531-0.4,7.493-3.931,8.849C1224.801,2471.671,1223.97,2471.819,1223.151,2471.819z"/>
					
						<linearGradient id="SVGID_00000111880598366580321950000008404957992719369631_" gradientUnits="userSpaceOnUse" x1="1621.1566" y1="736.4702" x2="1546.8881" y2="1269.8553">
						<stop  offset="0" style="stop-color:#4F52FF"/>
						<stop  offset="1" style="stop-color:#4042E2"/>
					</linearGradient>
					<path style="fill:url(#SVGID_00000111880598366580321950000008404957992719369631_);" d="M1513.25,1680.324
						c-199.524,5.878-246.576,52.608-246.576,52.608l111.903,139.259c0,0,193.8-25.736,320.881-148.698
						c-29.21-25.115-50.794-54.076-65.118-76.905C1600.134,1665.548,1559.791,1678.952,1513.25,1680.324z"/>
					
						<linearGradient id="SVGID_00000090256036429181780290000012015520476347854727_" gradientUnits="userSpaceOnUse" x1="-5235.666" y1="952.2247" x2="-5025.2769" y2="952.2247" gradientTransform="matrix(0.9937 -0.112 0.112 0.9937 6720.2886 24.4975)">
						<stop  offset="0" style="stop-color:#FEBBBA"/>
						<stop  offset="1" style="stop-color:#FF928E"/>
					</linearGradient>
					<path style="fill:url(#SVGID_00000090256036429181780290000012015520476347854727_);" d="M1818.54,1402.421
						c-0.981-6.304-17.782-58.403-51.368-29.765l-8.042,38.261c-3.7,10.95-3.949,22.771-0.713,33.866l12.379,30.33
						c4.369,14.979,2.144,31.082-6.176,44.283c-19.909,31.588-63.302,90.069-130.279,127.192
						c14.324,22.83,35.908,51.79,65.118,76.905c46.628-45.116,84.288-103.306,100.079-178.139
						c11.065-4.813,17.507-16.468,15.7-28.398L1818.54,1402.421z"/>
					
						<linearGradient id="SVGID_00000125570475592846519740000005862046934603534762_" gradientUnits="userSpaceOnUse" x1="1676.4596" y1="1569.1375" x2="1176.8322" y2="2460.3633">
						<stop  offset="0" style="stop-color:#4F52FF"/>
						<stop  offset="1" style="stop-color:#4042E2"/>
					</linearGradient>
					<path style="fill:url(#SVGID_00000125570475592846519740000005862046934603534762_);" d="M1588.12,1759.935
						c-78.043-67.138-214.412-86.071-292.725-91.335c-34.309-2.305-65.341,20.14-73.642,53.508
						c-24.068,96.732-90.764,348.85-104.288,392.415c-11.097,35.74-22.942,70.758-30.507,92.672
						c-4.52,13.09,2.329,27.372,15.4,31.949c68.076,23.843,188.227,45.954,236.877,54.38c10.701,1.853,20.141-7.088,18.924-17.881
						c-1.032-9.152,0.443-18.415,4.267-26.792l144.868-317.376c125.085,110.745,223.725,111.039,295.48,75.622
						c-16.959-37.451-29.58-75.465-37.926-114.035C1652.212,1886.59,1588.12,1759.935,1588.12,1759.935z"/>
					
						<linearGradient id="SVGID_00000067200778517207458960000003574320544293694392_" gradientUnits="userSpaceOnUse" x1="-4795.6875" y1="987.53" x2="-5215.5239" y2="1509.8468" gradientTransform="matrix(0.9937 -0.112 0.112 0.9937 6720.2886 24.4975)">
						<stop  offset="0" style="stop-color:#FEBBBA"/>
						<stop  offset="1" style="stop-color:#FF928E"/>
					</linearGradient>
					<path style="fill:url(#SVGID_00000067200778517207458960000003574320544293694392_);" d="M1945.159,1851.778l-22.939-24.34
						c-59.562,51.617-112.341,68.211-157.371,65.623c8.345,38.571,20.966,76.584,37.926,114.035
						C1897.305,1960.439,1945.159,1851.778,1945.159,1851.778z"/>
					
						<linearGradient id="SVGID_00000124880482620148371520000004066945185374108589_" gradientUnits="userSpaceOnUse" x1="-4716.0879" y1="1051.4982" x2="-5135.9365" y2="1573.8301" gradientTransform="matrix(0.9937 -0.112 0.112 0.9937 6720.2886 24.4975)">
						<stop  offset="0" style="stop-color:#FEBBBA"/>
						<stop  offset="1" style="stop-color:#FF928E"/>
					</linearGradient>
					<path style="fill:url(#SVGID_00000124880482620148371520000004066945185374108589_);" d="M1931.152,1853.845l112.843-8.287
						l96.926-69.436c-15.897-7.633-97.717,20.858-97.717,20.858s-89.272-3.379-113.032-0.73
						c-19.734,2.198-13.716,30.253-11.11,39.698c0.532,1.926,0.922,3.079,0.922,3.079L1931.152,1853.845z"/>
					
						<linearGradient id="SVGID_00000177480327897992088080000011894050916168132230_" gradientUnits="userSpaceOnUse" x1="-5268.0225" y1="671.8898" x2="-5674.6299" y2="1418.9913" gradientTransform="matrix(0.9937 -0.112 0.112 0.9937 6720.2886 24.4975)">
						<stop  offset="0" style="stop-color:#FEBBBA"/>
						<stop  offset="1" style="stop-color:#FF928E"/>
					</linearGradient>
					<path style="fill:url(#SVGID_00000177480327897992088080000011894050916168132230_);" d="M1385.426,1518.985l-42.967,151.333
						c0,0,73.425,39.464,127.715,28.799l14.919-133.401L1385.426,1518.985z"/>
					<g>
						
							<linearGradient id="SVGID_00000018234235625017225250000002214078649712675233_" gradientUnits="userSpaceOnUse" x1="-4046.2041" y1="-116.4907" x2="-4225.9077" y2="121.2426" gradientTransform="matrix(0.7472 -0.6646 0.6646 0.7472 4549.52 -1168.7673)">
							<stop  offset="0" style="stop-color:#FEBBBA"/>
							<stop  offset="1" style="stop-color:#FF928E"/>
						</linearGradient>
						<path style="fill:url(#SVGID_00000018234235625017225250000002214078649712675233_);" d="M1474.441,1409.085
							c1.574,1.77,60.014,147.105,60.014,147.105l-83.693,31.604l-75.855-129.518
							C1374.907,1458.276,1448.08,1379.447,1474.441,1409.085z"/>
						
							<linearGradient id="SVGID_00000170989393449256712050000013603949623235762816_" gradientUnits="userSpaceOnUse" x1="-4183.4453" y1="-59.1435" x2="-3968.7837" y2="-59.1435" gradientTransform="matrix(0.7472 -0.6646 0.6646 0.7472 4549.52 -1168.7673)">
							<stop  offset="0" style="stop-color:#09005D"/>
							<stop  offset="1" style="stop-color:#1A0F91"/>
						</linearGradient>
						<path style="fill:url(#SVGID_00000170989393449256712050000013603949623235762816_);" d="M1409.688,1475.332l34.592,71.308
							c0.444,0.914,0.993,1.744,1.668,2.504c4.129,4.654,19.504,19.625,33.861,2.96c13.028-15.123,25.142-28.729,37.342-32.328
							c5.477-1.615,11.275,1.185,13.404,6.484c5.305,13.206,16.713,43.187,22.649,70.745c1.204,5.593-2.125,11.145-7.59,12.836
							c-16.468,5.093-51.5,14.863-81.525,16.121c-4.068,0.171-7.894-1.851-9.992-5.34c-10.232-17.012-41.519-68.603-52.462-81.63
							c-10.27-12.227-31.752-9.429-40.689-7.611c-2.931,0.596-5.948-0.029-8.403-1.737c-8.678-6.032-25.7-22.01-6.943-45.551
							c3.926-4.926,3.001-12.056-2.043-15.83c-10.042-7.514-21.459-21.559-8.449-42.042c13.224-20.82,33.862-20.072,46.809-16.936
							c5.235,1.267,10.48-1.476,12.695-6.386c1.26-2.796,3.751-5.084,8.503-5.209c6.404-0.17,11.139-6.064,10.307-12.415
							c-1.598-12.203,1.038-28.145,21.505-37.138c36.318-15.959,63.89,17.757,69.273,44.628
							c5.385,26.872-34.974,41.935-59.601,42.859c-18.725,0.701-30.435,20.66-34.973,30.186
							C1408.191,1468.827,1408.229,1472.325,1409.688,1475.332z"/>
						
							<linearGradient id="SVGID_00000118391321667539832330000012285402755099287186_" gradientUnits="userSpaceOnUse" x1="-4309.3999" y1="71.7732" x2="-4165.2627" y2="-76.1077" gradientTransform="matrix(0.7472 -0.6646 0.6646 0.7472 4549.52 -1168.7673)">
							<stop  offset="0" style="stop-color:#FEBBBA"/>
							<stop  offset="1" style="stop-color:#FF928E"/>
						</linearGradient>
						<path style="fill:url(#SVGID_00000118391321667539832330000012285402755099287186_);" d="M1414.491,1564.83
							c0,0-11.391-46.419-31.247-46.517c-19.855-0.099-37.112,18.155-14.65,42.398
							C1396.536,1590.866,1414.491,1564.83,1414.491,1564.83z"/>
					</g>
				</g>
			</g>
			<g>
				
					<linearGradient id="SVGID_00000017477805984693826730000010524880985192686482_" gradientUnits="userSpaceOnUse" x1="1888.396" y1="524.1049" x2="1948.5193" y2="1041.167">
					<stop  offset="0" style="stop-color:#E1473D"/>
					<stop  offset="1" style="stop-color:#E9605A"/>
				</linearGradient>
				<path style="fill:url(#SVGID_00000017477805984693826730000010524880985192686482_);" d="M1968.687,1833.639
					c-22.816,1.493-44.043-9.121-55.853-28.086l-198.348-318.503c-18.589-29.847-8.573-70.729,22.36-91.306
					c30.907-20.564,71.019-13.053,89.584,16.782l137.557,221.091l181.503-369.657c16.288-33.175,55.424-48.393,87.387-34.004
					c31.958,14.384,44.674,52.915,28.408,86.068l-234.553,478.089c-10.741,21.89-32.093,36.955-55.755,39.333
					C1970.214,1833.525,1969.45,1833.589,1968.687,1833.639z"/>
			</g>
		</g>
		<g>
			
				<linearGradient id="SVGID_00000125582424067502029210000007306787217791449227_" gradientUnits="userSpaceOnUse" x1="3019.2275" y1="1557.0758" x2="2641.1338" y2="2482.0571">
				<stop  offset="0" style="stop-color:#E1473D"/>
				<stop  offset="1" style="stop-color:#E9605A"/>
			</linearGradient>
			<path style="fill:url(#SVGID_00000125582424067502029210000007306787217791449227_);" d="M2560.64,2275.368
				c-4.543,0-8.291-3.612-8.431-8.183c-0.092-3.067-2.042-76.016,19.434-153.916c28.929-104.925,86.945-167.111,167.781-179.837
				c39.605-6.237,74.905,3.114,104.905,27.79c97.792,80.434,107.094,296.238,107.442,305.384c0.178,4.658-3.453,8.577-8.112,8.755
				c-4.693,0.11-8.576-3.455-8.754-8.112c-0.084-2.164-9.366-217.399-101.313-293.003c-26.112-21.468-56.906-29.598-91.543-24.139
				c-179.667,28.283-173.055,313.684-172.966,316.563c0.142,4.658-3.521,8.55-8.179,8.693
				C2560.815,2275.366,2560.727,2275.368,2560.64,2275.368z"/>
			
				<linearGradient id="SVGID_00000002376497796062955850000008190072801495471783_" gradientUnits="userSpaceOnUse" x1="2948.4736" y1="2378.2068" x2="2165.2798" y2="3525.9907">
				<stop  offset="0" style="stop-color:#FF928E"/>
				<stop  offset="1" style="stop-color:#FE7062"/>
			</linearGradient>
			<path style="fill:url(#SVGID_00000002376497796062955850000008190072801495471783_);" d="M2205.147,3199.419l145.017-1000.04
				l544.773-9.159L3070.525,3255h-818.206C2223.214,3255,2200.9,3228.708,2205.147,3199.419z"/>
			
				<linearGradient id="SVGID_00000043424240168942171660000005487734472867573692_" gradientUnits="userSpaceOnUse" x1="4140.8423" y1="2373.5544" x2="3074.0718" y2="2711.1406">
				<stop  offset="0" style="stop-color:#FF928E"/>
				<stop  offset="1" style="stop-color:#FE7062"/>
			</linearGradient>
			<path style="fill:url(#SVGID_00000043424240168942171660000005487734472867573692_);" d="M3000.74,2199.379l-105.803-9.159
				L3070.525,3255h105.037c21.296,0,37.211-19.908,32.87-41.115L3000.74,2199.379z"/>
			
				<linearGradient id="SVGID_00000052076412309113009880000010708457418184266423_" gradientUnits="userSpaceOnUse" x1="2918.1238" y1="1515.751" x2="2540.0288" y2="2440.7349">
				<stop  offset="0" style="stop-color:#E1473D"/>
				<stop  offset="1" style="stop-color:#E9605A"/>
			</linearGradient>
			<path style="fill:url(#SVGID_00000052076412309113009880000010708457418184266423_);" d="M2826.272,2273.078
				c-4.513,0-8.253-3.57-8.428-8.118c-0.084-2.164-9.366-217.4-101.312-293.003c-26.11-21.468-56.905-29.598-91.543-24.139
				c-179.527,28.261-173.055,313.685-172.968,316.565c0.138,4.658-3.523,8.55-8.181,8.69c-4.709,0.194-8.548-3.521-8.692-8.178
				c-0.092-3.068-2.042-76.016,19.436-153.916c28.927-104.925,86.945-167.111,167.781-179.837
				c39.61-6.236,74.905,3.114,104.905,27.79c97.791,80.434,107.093,296.237,107.44,305.384c0.178,4.658-3.453,8.576-8.112,8.754
				C2826.49,2273.075,2826.379,2273.078,2826.272,2273.078z"/>
		</g>
		<g>
			<g>
				
					<linearGradient id="SVGID_00000000202334909844657750000017877786641253022362_" gradientUnits="userSpaceOnUse" x1="1271.9948" y1="1094.868" x2="1589.3043" y2="-160.869" gradientTransform="matrix(0.9331 0.0094 -0.0122 1.204 -117.7654 418.2314)">
					<stop  offset="0" style="stop-color:#FF928E"/>
					<stop  offset="1" style="stop-color:#FE7062"/>
				</linearGradient>
				<path style="fill:url(#SVGID_00000000202334909844657750000017877786641253022362_);" d="M1329.784,455.001
					c-6.967-0.07-13.479,2.606-17.273,8.805c-79.736,130.33-159.529,265.331-239.207,389.945
					c77.062,0.78,154.122,1.56,231.179,2.339c61.577-124.797,123.301-263.927,184.987-399.473
					C1436.239,456.078,1383.01,455.54,1329.784,455.001z"/>
				
					<linearGradient id="SVGID_00000050651624199247487700000017196521766304785544_" gradientUnits="userSpaceOnUse" x1="2165.3223" y1="-527.3737" x2="1512.0903" y2="581.6029" gradientTransform="matrix(0.9331 -0.0027 -0.0027 1.204 -98.3813 402.1701)">
					<stop  offset="0" style="stop-color:#4F52FF"/>
					<stop  offset="1" style="stop-color:#4042E2"/>
				</linearGradient>
				<path style="fill:url(#SVGID_00000050651624199247487700000017196521766304785544_);" d="M1535.632,861.453
					c-77.059-0.78-154.119-1.56-231.179-2.339c61.669-133.856,123.34-267.712,185.008-401.567
					c56.956,0.576,113.913,1.153,170.871,1.729C1618.767,593.334,1577.2,727.394,1535.632,861.453z"/>
				<g>
					
						<linearGradient id="SVGID_00000070086433207509694040000015546421160838007734_" gradientUnits="userSpaceOnUse" x1="1686.8141" y1="1199.7134" x2="2004.126" y2="-56.0324" gradientTransform="matrix(0.9331 0.0094 -0.0122 1.204 -117.7654 418.2314)">
						<stop  offset="0" style="stop-color:#FF928E"/>
						<stop  offset="1" style="stop-color:#FE7062"/>
					</linearGradient>
					<path style="fill:url(#SVGID_00000070086433207509694040000015546421160838007734_);" d="M1766.814,863.792
						c-77.06-0.78-154.12-1.56-231.181-2.339c41.568-134.059,83.135-268.119,124.7-402.178
						c56.958,0.576,113.915,1.153,170.875,1.729C1809.742,595.266,1788.278,729.529,1766.814,863.792z"/>
				</g>
				
					<linearGradient id="SVGID_00000158711616290827497180000006138543329911031198_" gradientUnits="userSpaceOnUse" x1="2415.877" y1="-359.1317" x2="1975.3286" y2="633.3661" gradientTransform="matrix(0.9331 -0.0027 -0.0027 1.204 -98.3813 402.1701)">
					<stop  offset="0" style="stop-color:#4F52FF"/>
					<stop  offset="1" style="stop-color:#4042E2"/>
				</linearGradient>
				<path style="fill:url(#SVGID_00000158711616290827497180000006138543329911031198_);" d="M1997.995,866.131
					c-77.06-0.78-154.12-1.559-231.181-2.339c21.464-134.263,42.928-268.526,64.394-402.788
					c56.957,0.576,113.912,1.153,170.869,1.729C2000.716,597.199,1999.356,731.665,1997.995,866.131z"/>
				<g>
					
						<linearGradient id="SVGID_00000181794741305356782480000016108241114247451288_" gradientUnits="userSpaceOnUse" x1="2112.7915" y1="1307.3754" x2="2430.1074" y2="51.6138" gradientTransform="matrix(0.9331 0.0094 -0.0122 1.204 -117.7654 418.2314)">
						<stop  offset="0" style="stop-color:#FF928E"/>
						<stop  offset="1" style="stop-color:#FE7062"/>
					</linearGradient>
					<path style="fill:url(#SVGID_00000181794741305356782480000016108241114247451288_);" d="M2229.176,868.47
						c-77.059-0.78-154.119-1.559-231.181-2.339c1.361-134.466,2.721-268.932,4.082-403.398
						c56.958,0.576,113.91,1.153,170.873,1.729C2191.69,599.131,2210.433,733.801,2229.176,868.47z"/>
				</g>
				
					<linearGradient id="SVGID_00000136401254283124560380000011276909773114501762_" gradientUnits="userSpaceOnUse" x1="2738.3865" y1="-257.0659" x2="2454.8186" y2="659.4641" gradientTransform="matrix(0.9331 -0.0027 -0.0027 1.204 -98.3813 402.1701)">
					<stop  offset="0" style="stop-color:#4F52FF"/>
					<stop  offset="1" style="stop-color:#4042E2"/>
				</linearGradient>
				<path style="fill:url(#SVGID_00000136401254283124560380000011276909773114501762_);" d="M2460.357,870.81
					c-77.064-0.78-154.119-1.56-231.181-2.339c-18.741-134.669-37.483-269.339-56.226-404.008
					c56.957,0.576,113.913,1.153,170.871,1.729C2382.665,601.064,2421.511,735.937,2460.357,870.81z"/>
				<g>
					
						<linearGradient id="SVGID_00000126317798828977485830000016829627370894474388_" gradientUnits="userSpaceOnUse" x1="2517.8047" y1="1409.7498" x2="2835.1245" y2="153.9721" gradientTransform="matrix(0.9331 0.0094 -0.0122 1.204 -117.7654 418.2314)">
						<stop  offset="0" style="stop-color:#FF928E"/>
						<stop  offset="1" style="stop-color:#FE7062"/>
					</linearGradient>
					<path style="fill:url(#SVGID_00000126317798828977485830000016829627370894474388_);" d="M2691.537,873.149
						c-77.06-0.78-154.12-1.559-231.179-2.339c-38.846-134.873-77.693-269.746-116.537-404.619
						c56.961,0.576,113.913,1.153,170.875,1.729C2573.639,602.996,2632.585,738.073,2691.537,873.149z"/>
				</g>
				
					<linearGradient id="SVGID_00000088841751653012575660000008334161017298196618_" gradientUnits="userSpaceOnUse" x1="3048.415" y1="-282.3529" x2="2987.6519" y2="735.4239" gradientTransform="matrix(0.9331 -0.0027 -0.0027 1.204 -98.3813 402.1701)">
					<stop  offset="0" style="stop-color:#4F52FF"/>
					<stop  offset="1" style="stop-color:#4042E2"/>
				</linearGradient>
				<path style="fill:url(#SVGID_00000088841751653012575660000008334161017298196618_);" d="M2691.479,477.76
					c-3.667-6.275-10.124-9.083-17.091-9.153c-53.228-0.539-106.457-1.077-159.683-1.616
					c58.927,136.767,117.819,277.117,176.863,403.134l224.784,2.274c2.575,0.026,4.046-3.78,2.458-6.385
					C2842.985,741.618,2767.25,607.433,2691.479,477.76z"/>
			</g>
			<g>
				
					<linearGradient id="SVGID_00000054984961476355114670000015718182940936900750_" gradientUnits="userSpaceOnUse" x1="1404.8563" y1="254.0005" x2="1402.9794" y2="710.0562" gradientTransform="matrix(0.9331 0.0094 -0.0122 1.204 -117.7654 418.2314)">
					<stop  offset="0" style="stop-color:#FF928E"/>
					<stop  offset="1" style="stop-color:#FE7062"/>
				</linearGradient>
				<path style="fill:url(#SVGID_00000054984961476355114670000015718182940936900750_);" d="M1075.476,853.773
					c-3.038-0.031-5.532,3.122-5.572,7.041l-0.635,62.782c-0.589,58.201,54.765,102.673,118.435,103.317l2.479,0.025
					c63.67,0.644,115.179-42.747,115.767-100.947l0.707-69.879L1075.476,853.773z"/>
				
					<linearGradient id="SVGID_00000140723143145633826470000005764439970276063399_" gradientUnits="userSpaceOnUse" x1="1630.7551" y1="394.6144" x2="1718.5316" y2="-179.3085" gradientTransform="matrix(0.9331 -0.0027 -0.0027 1.204 -98.3813 402.1701)">
					<stop  offset="0" style="stop-color:#4F52FF"/>
					<stop  offset="1" style="stop-color:#4042E2"/>
				</linearGradient>
				<path style="fill:url(#SVGID_00000140723143145633826470000005764439970276063399_);" d="M1306.657,856.112l-0.707,69.879
					c-0.589,58.201,48.179,102.606,110.774,103.24l2.437,0.025c62.595,0.633,112.738-42.771,113.327-100.972l0.707-69.879
					L1306.657,856.112z"/>
			</g>
			<g>
				
					<linearGradient id="SVGID_00000140009665751707030630000000080332235592172706_" gradientUnits="userSpaceOnUse" x1="1899.4625" y1="254.031" x2="1897.5858" y2="710.0577" gradientTransform="matrix(0.9331 0.0094 -0.0122 1.204 -117.7654 418.2314)">
					<stop  offset="0" style="stop-color:#FF928E"/>
					<stop  offset="1" style="stop-color:#FE7062"/>
				</linearGradient>
				<path style="fill:url(#SVGID_00000140009665751707030630000000080332235592172706_);" d="M1533.194,858.404l-0.707,69.879
					c-0.589,58.201,53.478,102.66,117.148,103.304l2.479,0.025c63.669,0.644,113.084-42.768,113.673-100.969l0.707-69.879
					L1533.194,858.404z"/>
				
					<linearGradient id="SVGID_00000064315091675227368220000018246695759251535034_" gradientUnits="userSpaceOnUse" x1="2114.8223" y1="468.6319" x2="2202.5989" y2="-105.2914" gradientTransform="matrix(0.9331 -0.0027 -0.0027 1.204 -98.3813 402.1701)">
					<stop  offset="0" style="stop-color:#4F52FF"/>
					<stop  offset="1" style="stop-color:#4042E2"/>
				</linearGradient>
				<path style="fill:url(#SVGID_00000064315091675227368220000018246695759251535034_);" d="M1766.494,860.765l-0.707,69.879
					c-0.589,58.201,50.273,102.628,112.868,103.261l2.437,0.025c62.595,0.633,114.024-42.758,114.613-100.959l0.707-69.879
					L1766.494,860.765z"/>
			</g>
			<g>
				
					<linearGradient id="SVGID_00000140714331501942619020000010234016806256762277_" gradientUnits="userSpaceOnUse" x1="2394.0811" y1="254.0617" x2="2392.2043" y2="710.0591" gradientTransform="matrix(0.9331 0.0094 -0.0122 1.204 -117.7654 418.2314)">
					<stop  offset="0" style="stop-color:#FF928E"/>
					<stop  offset="1" style="stop-color:#FE7062"/>
				</linearGradient>
				<path style="fill:url(#SVGID_00000140714331501942619020000010234016806256762277_);" d="M1996.413,863.091l-0.707,69.879
					c-0.589,58.201,52.192,102.647,115.861,103.291l2.479,0.025c63.67,0.644,110.99-42.789,111.579-100.99l0.707-69.879
					L1996.413,863.091z"/>
				
					<linearGradient id="SVGID_00000098198988109732875190000006618459346317500841_" gradientUnits="userSpaceOnUse" x1="2598.8899" y1="542.6496" x2="2686.6663" y2="-31.273" gradientTransform="matrix(0.9331 -0.0027 -0.0027 1.204 -98.3813 402.1701)">
					<stop  offset="0" style="stop-color:#4F52FF"/>
					<stop  offset="1" style="stop-color:#4042E2"/>
				</linearGradient>
				<path style="fill:url(#SVGID_00000098198988109732875190000006618459346317500841_);" d="M2226.332,865.417l-0.707,69.879
					c-0.589,58.201,52.368,102.649,114.963,103.282l2.437,0.025c62.595,0.633,115.311-42.745,115.9-100.946l0.707-69.879
					L2226.332,865.417z"/>
			</g>
			<g>
				
					<linearGradient id="SVGID_00000044893735988696402700000004080550128381511582_" gradientUnits="userSpaceOnUse" x1="2892.323" y1="254.0577" x2="2890.4463" y2="710.1199" gradientTransform="matrix(0.9331 0.0094 -0.0122 1.204 -117.7654 418.2314)">
					<stop  offset="0" style="stop-color:#FF928E"/>
					<stop  offset="1" style="stop-color:#FE7062"/>
				</linearGradient>
				<path style="fill:url(#SVGID_00000044893735988696402700000004080550128381511582_);" d="M2459.632,867.778l-0.707,69.879
					c-0.589,58.201,50.905,102.634,114.574,103.278l2.479,0.025c63.669,0.644,115.657-42.742,116.246-100.943l0.707-69.879
					L2459.632,867.778z"/>
				
					<linearGradient id="SVGID_00000005229365452634359600000003909823728355491509_" gradientUnits="userSpaceOnUse" x1="3084.7505" y1="616.9413" x2="3172.5269" y2="43.019" gradientTransform="matrix(0.9331 -0.0027 -0.0027 1.204 -98.3813 402.1701)">
					<stop  offset="0" style="stop-color:#4F52FF"/>
					<stop  offset="1" style="stop-color:#4042E2"/>
				</linearGradient>
				<path style="fill:url(#SVGID_00000005229365452634359600000003909823728355491509_);" d="M2692.932,870.139l-0.707,69.879
					c-0.589,58.201,47.7,102.602,110.295,103.235l2.438,0.025c62.595,0.633,113.216-42.766,113.805-100.967l0.707-69.879
					L2692.932,870.139z"/>
			</g>
		</g>
	</g>
</g>
</svg>
